<?xml version="1.0" encoding="UTF-8" standalone="no"?>
<!DOCTYPE svg PUBLIC "-//W3C//DTD SVG 1.1//EN"
 "http://www.w3.org/Graphics/SVG/1.1/DTD/svg11.dtd">
<!-- Generated by graphviz version 2.30.1 (20130302.0420)
 -->
<!-- Title: G Pages: 1 -->
<svg width="758pt" height="1336pt"
 viewBox="0.00 0.00 758.00 1336.00" xmlns="http://www.w3.org/2000/svg" xmlns:xlink="http://www.w3.org/1999/xlink">
<g id="graph0" class="graph" transform="scale(1 1) rotate(0) translate(4 1332)">
<title>G</title>
<polygon fill="white" stroke="white" points="-4,5 -4,-1332 755,-1332 755,5 -4,5"/>
<g id="clust1" class="cluster"><title>cluster_Native5</title>
<path fill="none" stroke="gray" d="M20,-44C20,-44 730,-44 730,-44 736,-44 742,-50 742,-56 742,-56 742,-1308 742,-1308 742,-1314 736,-1320 730,-1320 730,-1320 20,-1320 20,-1320 14,-1320 8,-1314 8,-1308 8,-1308 8,-56 8,-56 8,-50 14,-44 20,-44"/>
<text text-anchor="middle" x="375" y="-1305" font-family="Times,serif" font-size="11.00" fill="gray">Native5</text>
</g>
<g id="clust2" class="cluster"><title>cluster_Native5\Core</title>
<path fill="none" stroke="gray" d="M28,-683C28,-683 690,-683 690,-683 696,-683 702,-689 702,-695 702,-695 702,-1279 702,-1279 702,-1285 696,-1291 690,-1291 690,-1291 28,-1291 28,-1291 22,-1291 16,-1285 16,-1279 16,-1279 16,-695 16,-695 16,-689 22,-683 28,-683"/>
<text text-anchor="middle" x="359" y="-1276" font-family="Times,serif" font-size="11.00" fill="gray">Core</text>
</g>
<g id="clust3" class="cluster"><title>cluster_Native5\Core\Caching</title>
<path fill="none" stroke="gray" d="M285,-1081C285,-1081 671,-1081 671,-1081 677,-1081 683,-1087 683,-1093 683,-1093 683,-1250 683,-1250 683,-1256 677,-1262 671,-1262 671,-1262 285,-1262 285,-1262 279,-1262 273,-1256 273,-1250 273,-1250 273,-1093 273,-1093 273,-1087 279,-1081 285,-1081"/>
<text text-anchor="middle" x="478" y="-1247" font-family="Times,serif" font-size="11.00" fill="gray">Caching</text>
</g>
<g id="clust4" class="cluster"><title>cluster_Native5\Core\Connectors</title>
<path fill="none" stroke="gray" d="M585,-909C585,-909 663,-909 663,-909 669,-909 675,-915 675,-921 675,-921 675,-1061 675,-1061 675,-1067 669,-1073 663,-1073 663,-1073 585,-1073 585,-1073 579,-1073 573,-1067 573,-1061 573,-1061 573,-921 573,-921 573,-915 579,-909 585,-909"/>
<text text-anchor="middle" x="624" y="-1058" font-family="Times,serif" font-size="11.00" fill="gray">Connectors</text>
</g>
<g id="clust5" class="cluster"><title>cluster_Native5\Core\Connectors\Database</title>
<path fill="none" stroke="gray" d="M593,-917C593,-917 655,-917 655,-917 661,-917 667,-923 667,-929 667,-929 667,-1032 667,-1032 667,-1038 661,-1044 655,-1044 655,-1044 593,-1044 593,-1044 587,-1044 581,-1038 581,-1032 581,-1032 581,-929 581,-929 581,-923 587,-917 593,-917"/>
<text text-anchor="middle" x="624" y="-1029" font-family="Times,serif" font-size="11.00" fill="gray">Database</text>
</g>
<g id="clust7" class="cluster"><title>cluster_Native5\Core\Log</title>
<path fill="none" stroke="gray" d="M36,-691C36,-691 682,-691 682,-691 688,-691 694,-697 694,-703 694,-703 694,-889 694,-889 694,-895 688,-901 682,-901 682,-901 36,-901 36,-901 30,-901 24,-895 24,-889 24,-889 24,-703 24,-703 24,-697 30,-691 36,-691"/>
<text text-anchor="middle" x="359" y="-886" font-family="Times,serif" font-size="11.00" fill="gray">Log</text>
</g>
<g id="clust8" class="cluster"><title>cluster_Native5\Core\Log\Impl</title>
<path fill="none" stroke="gray" d="M245,-745C245,-745 674,-745 674,-745 680,-745 686,-751 686,-757 686,-757 686,-860 686,-860 686,-866 680,-872 674,-872 674,-872 245,-872 245,-872 239,-872 233,-866 233,-860 233,-860 233,-757 233,-757 233,-751 239,-745 245,-745"/>
<text text-anchor="middle" x="459.5" y="-857" font-family="Times,serif" font-size="11.00" fill="gray">Impl</text>
</g>
<g id="clust17" class="cluster"><title>cluster_Native5\Util</title>
<path fill="none" stroke="gray" d="M267,-52C267,-52 722,-52 722,-52 728,-52 734,-58 734,-64 734,-64 734,-663 734,-663 734,-669 728,-675 722,-675 722,-675 267,-675 267,-675 261,-675 255,-669 255,-663 255,-663 255,-64 255,-64 255,-58 261,-52 267,-52"/>
<text text-anchor="middle" x="494.5" y="-660" font-family="Times,serif" font-size="11.00" fill="gray">Util</text>
</g>
<g id="clust18" class="cluster"><title>cluster_Native5\Util\Formatters</title>
<path fill="none" stroke="gray" d="M275,-519C275,-519 714,-519 714,-519 720,-519 726,-525 726,-531 726,-531 726,-634 726,-634 726,-640 720,-646 714,-646 714,-646 275,-646 275,-646 269,-646 263,-640 263,-634 263,-634 263,-531 263,-531 263,-525 269,-519 275,-519"/>
<text text-anchor="middle" x="494.5" y="-631" font-family="Times,serif" font-size="11.00" fill="gray">Formatters</text>
</g>
<g id="clust19" class="cluster"><title>cluster_Native5\Util\Password</title>
<path fill="none" stroke="gray" d="M285,-60C285,-60 688,-60 688,-60 694,-60 700,-66 700,-72 700,-72 700,-499 700,-499 700,-505 694,-511 688,-511 688,-511 285,-511 285,-511 279,-511 273,-505 273,-499 273,-499 273,-72 273,-72 273,-66 279,-60 285,-60"/>
<text text-anchor="middle" x="486.5" y="-496" font-family="Times,serif" font-size="11.00" fill="gray">Password</text>
</g>
<!-- \\Native5\\Core\\Caching\\Cache -->
<g id="node1" class="node"><title>\\Native5\\Core\\Caching\\Cache</title>
<g id="a_node1"><a xlink:href="Core.Caching.Cache.html" xlink:title="Cache" target="_parent">
<polygon fill="none" stroke="black" points="651,-1233 597,-1233 597,-1197 651,-1197 651,-1233"/>
<text text-anchor="middle" x="624" y="-1210.6" font-family="Courier,monospace" font-size="11.00">Cache</text>
</a>
</g>
</g>
<!-- \\Native5\\Core\\Caching\\ICache -->
<g id="node2" class="node"><title>\\Native5\\Core\\Caching\\ICache</title>
<g id="a_node2"><a xlink:href="Core.Caching.ICache.html" xlink:title="ICache" target="_parent">
<polygon fill="none" stroke="black" points="336.608,-1152 281.392,-1152 281.392,-1116 336.608,-1116 336.608,-1152"/>
<text text-anchor="middle" x="309" y="-1129.6" font-family="Courier,monospace" font-size="11.00">ICache</text>
</a>
</g>
</g>
<!-- \\Native5\\Core\\Caching\\MemcacheCache -->
<g id="node3" class="node"><title>\\Native5\\Core\\Caching\\MemcacheCache</title>
<g id="a_node3"><a xlink:href="Core.Caching.MemcacheCache.html" xlink:title="MemcacheCache" target="_parent">
<polygon fill="none" stroke="black" points="674.814,-1179 573.186,-1179 573.186,-1143 674.814,-1143 674.814,-1179"/>
<text text-anchor="middle" x="624" y="-1156.6" font-family="Courier,monospace" font-size="11.00">MemcacheCache</text>
</a>
</g>
</g>
<!-- \\Native5\\Core\\Caching\\MemcacheCache&#45;&gt;\\Native5\\Core\\Caching\\ICache -->
<g id="edge3" class="edge"><title>\\Native5\\Core\\Caching\\MemcacheCache&#45;&gt;\\Native5\\Core\\Caching\\ICache</title>
<path fill="none" stroke="black" stroke-dasharray="1,5" d="M573.058,-1156.69C509.984,-1151.25 402.933,-1142.02 346.816,-1137.18"/>
<polygon fill="none" stroke="black" points="346.89,-1133.67 336.627,-1136.3 346.289,-1140.64 346.89,-1133.67"/>
</g>
<!-- \\Native5\\Core\\Caching\\SimpleCache -->
<g id="node4" class="node"><title>\\Native5\\Core\\Caching\\SimpleCache</title>
<g id="a_node4"><a xlink:href="Core.Caching.SimpleCache.html" xlink:title="SimpleCache" target="_parent">
<polygon fill="none" stroke="black" points="668.113,-1125 579.887,-1125 579.887,-1089 668.113,-1089 668.113,-1125"/>
<text text-anchor="middle" x="624" y="-1102.6" font-family="Courier,monospace" font-size="11.00">SimpleCache</text>
</a>
</g>
</g>
<!-- \\Native5\\Core\\Caching\\SimpleCache&#45;&gt;\\Native5\\Core\\Caching\\ICache -->
<g id="edge4" class="edge"><title>\\Native5\\Core\\Caching\\SimpleCache&#45;&gt;\\Native5\\Core\\Caching\\ICache</title>
<path fill="none" stroke="black" stroke-dasharray="1,5" d="M579.807,-1110.73C517.92,-1116.06 405.08,-1125.8 346.887,-1130.82"/>
<polygon fill="none" stroke="black" points="346.344,-1127.35 336.682,-1131.7 346.946,-1134.33 346.344,-1127.35"/>
</g>
<!-- \\Native5\\Core\\Connectors\\Database\\DB -->
<g id="node5" class="node"><title>\\Native5\\Core\\Connectors\\Database\\DB</title>
<g id="a_node5"><a xlink:href="Core.Database.DB.html" xlink:title="DB" target="_parent">
<polygon fill="none" stroke="black" points="651,-1015 597,-1015 597,-979 651,-979 651,-1015"/>
<text text-anchor="middle" x="624" y="-992.6" font-family="Courier,monospace" font-size="11.00">DB</text>
</a>
</g>
</g>
<!-- \\Native5\\Core\\Connectors\\Database\\DBConfig -->
<g id="node6" class="node"><title>\\Native5\\Core\\Connectors\\Database\\DBConfig</title>
<g id="a_node6"><a xlink:href="Core.Database.DBConfig.html" xlink:title="DBConfig" target="_parent">
<polygon fill="none" stroke="black" points="658.309,-961 589.691,-961 589.691,-925 658.309,-925 658.309,-961"/>
<text text-anchor="middle" x="624" y="-938.6" font-family="Courier,monospace" font-size="11.00">DBConfig</text>
</a>
</g>
</g>
<!-- \\Native5\\Core\\Log\\Impl\\AbstractLogAdapter -->
<g id="node7" class="node"><title>\\Native5\\Core\\Log\\Impl\\AbstractLogAdapter</title>
<g id="a_node7"><a xlink:href="Core.Log.Impl.AbstractLogAdapter.html" xlink:title="AbstractLogAdapter" target="_parent">
<polygon fill="none" stroke="black" points="376.319,-789 241.681,-789 241.681,-753 376.319,-753 376.319,-789"/>
<text text-anchor="middle" x="309" y="-766.6" font-family="Courier,monospace" font-size="11.00">AbstractLogAdapter</text>
</a>
</g>
</g>
<!-- \\Native5\\Core\\Log\\Logger -->
<g id="node11" class="node"><title>\\Native5\\Core\\Log\\Logger</title>
<g id="a_node11"><a xlink:href="Core.Log.Logger.html" xlink:title="Logger" target="_parent">
<polygon fill="none" stroke="black" points="87.6078,-789 32.3922,-789 32.3922,-753 87.6078,-753 87.6078,-789"/>
<text text-anchor="middle" x="60" y="-766.6" font-family="Courier,monospace" font-size="11.00">Logger</text>
</a>
</g>
</g>
<!-- \\Native5\\Core\\Log\\Impl\\AbstractLogAdapter&#45;&gt;\\Native5\\Core\\Log\\Logger -->
<g id="edge5" class="edge"><title>\\Native5\\Core\\Log\\Impl\\AbstractLogAdapter&#45;&gt;\\Native5\\Core\\Log\\Logger</title>
<path fill="none" stroke="black" stroke-dasharray="1,5" d="M241.484,-771C195.379,-771 135.705,-771 97.875,-771"/>
<polygon fill="none" stroke="black" points="97.8138,-767.5 87.8137,-771 97.8137,-774.5 97.8138,-767.5"/>
</g>
<!-- \\Native5\\Core\\Log\\Impl\\FileLogHandler -->
<g id="node8" class="node"><title>\\Native5\\Core\\Log\\Impl\\FileLogHandler</title>
<g id="a_node8"><a xlink:href="Core.Log.Impl.FileLogHandler.html" xlink:title="FileLogHandler" target="_parent">
<polygon fill="none" stroke="black" points="678.416,-843 569.584,-843 569.584,-807 678.416,-807 678.416,-843"/>
<text text-anchor="middle" x="624" y="-820.6" font-family="Courier,monospace" font-size="11.00">FileLogHandler</text>
</a>
</g>
</g>
<!-- \\Native5\\Core\\Log\\Impl\\ILogHandler -->
<g id="node9" class="node"><title>\\Native5\\Core\\Log\\Impl\\ILogHandler</title>
<g id="a_node9"><a xlink:href="Core.Log.Impl.ILogHandler.html" xlink:title="ILogHandler" target="_parent">
<polygon fill="none" stroke="black" points="353.113,-843 264.887,-843 264.887,-807 353.113,-807 353.113,-843"/>
<text text-anchor="middle" x="309" y="-820.6" font-family="Courier,monospace" font-size="11.00">ILogHandler</text>
</a>
</g>
</g>
<!-- \\Native5\\Core\\Log\\Impl\\FileLogHandler&#45;&gt;\\Native5\\Core\\Log\\Impl\\ILogHandler -->
<g id="edge6" class="edge"><title>\\Native5\\Core\\Log\\Impl\\FileLogHandler&#45;&gt;\\Native5\\Core\\Log\\Impl\\ILogHandler</title>
<path fill="none" stroke="black" stroke-dasharray="1,5" d="M569.549,-825C512.019,-825 421.044,-825 363.496,-825"/>
<polygon fill="none" stroke="black" points="363.156,-821.5 353.156,-825 363.155,-828.5 363.156,-821.5"/>
</g>
<!-- \\Native5\\Core\\Log\\Impl\\MonologAdapter -->
<g id="node10" class="node"><title>\\Native5\\Core\\Log\\Impl\\MonologAdapter</title>
<g id="a_node10"><a xlink:href="Core.Log.Impl.MonologAdapter.html" xlink:title="MonologAdapter" target="_parent">
<polygon fill="none" stroke="black" points="678.416,-789 569.584,-789 569.584,-753 678.416,-753 678.416,-789"/>
<text text-anchor="middle" x="624" y="-766.6" font-family="Courier,monospace" font-size="11.00">MonologAdapter</text>
</a>
</g>
</g>
<!-- \\Native5\\Core\\Log\\Impl\\MonologAdapter&#45;&gt;\\Native5\\Core\\Log\\Impl\\AbstractLogAdapter -->
<g id="edge1" class="edge"><title>\\Native5\\Core\\Log\\Impl\\MonologAdapter&#45;&gt;\\Native5\\Core\\Log\\Impl\\AbstractLogAdapter</title>
<path fill="none" stroke="black" d="M569.549,-771C519.229,-771 443.323,-771 386.578,-771"/>
<polygon fill="none" stroke="black" points="386.573,-767.5 376.573,-771 386.573,-774.5 386.573,-767.5"/>
</g>
<!-- \\Native5\\Core\\Log\\LoggerFactory -->
<g id="node12" class="node"><title>\\Native5\\Core\\Log\\LoggerFactory</title>
<g id="a_node12"><a xlink:href="Core.Log.LoggerFactory.html" xlink:title="LoggerFactory" target="_parent">
<polygon fill="none" stroke="black" points="674.814,-735 573.186,-735 573.186,-699 674.814,-699 674.814,-735"/>
<text text-anchor="middle" x="624" y="-712.6" font-family="Courier,monospace" font-size="11.00">LoggerFactory</text>
</a>
</g>
</g>
<!-- \\Native5\\Util\\Formatters\\Formatter -->
<g id="node13" class="node"><title>\\Native5\\Util\\Formatters\\Formatter</title>
<g id="a_node13"><a xlink:href="Util.Formatters.Formatter.html" xlink:title="Formatter" target="_parent">
<polygon fill="none" stroke="black" points="346.911,-617 271.089,-617 271.089,-581 346.911,-581 346.911,-617"/>
<text text-anchor="middle" x="309" y="-594.6" font-family="Courier,monospace" font-size="11.00">Formatter</text>
</a>
</g>
</g>
<!-- \\Native5\\Util\\Formatters\\PhoneFormatter -->
<g id="node14" class="node"><title>\\Native5\\Util\\Formatters\\PhoneFormatter</title>
<g id="a_node14"><a xlink:href="Util.Formatters.PhoneFormatter.html" xlink:title="PhoneFormatter" target="_parent">
<polygon fill="none" stroke="black" points="678.416,-617 569.584,-617 569.584,-581 678.416,-581 678.416,-617"/>
<text text-anchor="middle" x="624" y="-594.6" font-family="Courier,monospace" font-size="11.00">PhoneFormatter</text>
</a>
</g>
</g>
<!-- \\Native5\\Util\\Formatters\\PhoneFormatter&#45;&gt;\\Native5\\Util\\Formatters\\Formatter -->
<g id="edge7" class="edge"><title>\\Native5\\Util\\Formatters\\PhoneFormatter&#45;&gt;\\Native5\\Util\\Formatters\\Formatter</title>
<path fill="none" stroke="black" stroke-dasharray="1,5" d="M569.549,-599C509.882,-599 414.24,-599 357.226,-599"/>
<polygon fill="none" stroke="black" points="357.047,-595.5 347.047,-599 357.047,-602.5 357.047,-595.5"/>
</g>
<!-- \\Native5\\Util\\Formatters\\UnsupportedFormatException -->
<g id="node15" class="node"><title>\\Native5\\Util\\Formatters\\UnsupportedFormatException</title>
<g id="a_node15"><a xlink:href="Util.Formatters.UnsupportedFormatException.html" xlink:title="UnsupportedFormatException" target="_parent">
<polygon fill="none" stroke="black" points="717.628,-563 530.372,-563 530.372,-527 717.628,-527 717.628,-563"/>
<text text-anchor="middle" x="624" y="-540.6" font-family="Courier,monospace" font-size="11.00">UnsupportedFormatException</text>
</a>
</g>
</g>
<!-- \\Native5\\Util\\Formatters\\Exception -->
<g id="node25" class="node"><title>\\Native5\\Util\\Formatters\\Exception</title>
<ellipse fill="none" stroke="black" cx="309" cy="-18" rx="148.202" ry="18"/>
<text text-anchor="middle" x="309" y="-12.4" font-family="Times,serif" font-size="14.00" fill="gray">\Native5\Util\Formatters\Exception</text>
</g>
<!-- \\Native5\\Util\\Formatters\\UnsupportedFormatException&#45;&gt;\\Native5\\Util\\Formatters\\Exception -->
<g id="edge2" class="edge"><title>\\Native5\\Util\\Formatters\\UnsupportedFormatException&#45;&gt;\\Native5\\Util\\Formatters\\Exception</title>
<path fill="none" stroke="black" d="M543.791,-526.9C538.659,-523.573 533.968,-519.643 530,-515 395.843,-358.023 596.86,-208.833 458,-56 449.625,-46.7819 439.344,-39.6669 428.137,-34.1935"/>
<polygon fill="none" stroke="black" points="429.532,-30.9836 418.971,-30.1472 426.706,-37.3874 429.532,-30.9836"/>
</g>
<!-- \\Native5\\Util\\Password\\Action -->
<g id="node16" class="node"><title>\\Native5\\Util\\Password\\Action</title>
<g id="a_node16"><a xlink:href="Util.Password.Action.html" xlink:title="Action" target="_parent">
<polygon fill="none" stroke="black" points="336.608,-428 281.392,-428 281.392,-392 336.608,-392 336.608,-428"/>
<text text-anchor="middle" x="309" y="-405.6" font-family="Courier,monospace" font-size="11.00">Action</text>
</a>
</g>
</g>
<!-- \\Native5\\Util\\Password\\AgeAccessor -->
<g id="node17" class="node"><title>\\Native5\\Util\\Password\\AgeAccessor</title>
<g id="a_node17"><a xlink:href="Util.Password.AgeAccessor.html" xlink:title="AgeAccessor" target="_parent">
<polygon fill="none" stroke="black" points="668.113,-482 579.887,-482 579.887,-446 668.113,-446 668.113,-482"/>
<text text-anchor="middle" x="624" y="-459.6" font-family="Courier,monospace" font-size="11.00">AgeAccessor</text>
</a>
</g>
</g>
<!-- \\Native5\\Util\\Password\\AutoResetAction -->
<g id="node18" class="node"><title>\\Native5\\Util\\Password\\AutoResetAction</title>
<g id="a_node18"><a xlink:href="Util.Password.AutoResetAction.html" xlink:title="AutoResetAction" target="_parent">
<polygon fill="none" stroke="black" points="681.516,-428 566.484,-428 566.484,-392 681.516,-392 681.516,-428"/>
<text text-anchor="middle" x="624" y="-405.6" font-family="Courier,monospace" font-size="11.00">AutoResetAction</text>
</a>
</g>
</g>
<!-- \\Native5\\Util\\Password\\AutoResetAction&#45;&gt;\\Native5\\Util\\Password\\Action -->
<g id="edge8" class="edge"><title>\\Native5\\Util\\Password\\AutoResetAction&#45;&gt;\\Native5\\Util\\Password\\Action</title>
<path fill="none" stroke="black" stroke-dasharray="1,5" d="M566.318,-410C502.732,-410 401.416,-410 347.166,-410"/>
<polygon fill="none" stroke="black" points="346.969,-406.5 336.969,-410 346.969,-413.5 346.969,-406.5"/>
</g>
<!-- \\Native5\\Util\\Password\\ComplexityAccessor -->
<g id="node19" class="node"><title>\\Native5\\Util\\Password\\ComplexityAccessor</title>
<g id="a_node19"><a xlink:href="Util.Password.ComplexityAccessor.html" xlink:title="ComplexityAccessor" target="_parent">
<polygon fill="none" stroke="black" points="691.319,-374 556.681,-374 556.681,-338 691.319,-338 691.319,-374"/>
<text text-anchor="middle" x="624" y="-351.6" font-family="Courier,monospace" font-size="11.00">ComplexityAccessor</text>
</a>
</g>
</g>
<!-- \\Native5\\Util\\Password\\Condition -->
<g id="node20" class="node"><title>\\Native5\\Util\\Password\\Condition</title>
<g id="a_node20"><a xlink:href="Util.Password.Condition.html" xlink:title="Condition" target="_parent">
<polygon fill="none" stroke="black" points="661.911,-320 586.089,-320 586.089,-284 661.911,-284 661.911,-320"/>
<text text-anchor="middle" x="624" y="-297.6" font-family="Courier,monospace" font-size="11.00">Condition</text>
</a>
</g>
</g>
<!-- \\Native5\\Util\\Password\\Password -->
<g id="node21" class="node"><title>\\Native5\\Util\\Password\\Password</title>
<g id="a_node21"><a xlink:href="Util.Password.Password.html" xlink:title="Password" target="_parent">
<polygon fill="none" stroke="black" points="658.309,-266 589.691,-266 589.691,-230 658.309,-230 658.309,-266"/>
<text text-anchor="middle" x="624" y="-243.6" font-family="Courier,monospace" font-size="11.00">Password</text>
</a>
</g>
</g>
<!-- \\Native5\\Util\\Password\\PasswordPolicy -->
<g id="node22" class="node"><title>\\Native5\\Util\\Password\\PasswordPolicy</title>
<g id="a_node22"><a xlink:href="Util.Password.PasswordPolicy.html" xlink:title="PasswordPolicy" target="_parent">
<polygon fill="none" stroke="black" points="678.416,-212 569.584,-212 569.584,-176 678.416,-176 678.416,-212"/>
<text text-anchor="middle" x="624" y="-189.6" font-family="Courier,monospace" font-size="11.00">PasswordPolicy</text>
</a>
</g>
</g>
<!-- \\Native5\\Util\\Password\\PasswordRule -->
<g id="node23" class="node"><title>\\Native5\\Util\\Password\\PasswordRule</title>
<g id="a_node23"><a xlink:href="Util.Password.PasswordRule.html" xlink:title="PasswordRule" target="_parent">
<polygon fill="none" stroke="black" points="671.713,-158 576.287,-158 576.287,-122 671.713,-122 671.713,-158"/>
<text text-anchor="middle" x="624" y="-135.6" font-family="Courier,monospace" font-size="11.00">PasswordRule</text>
</a>
</g>
</g>
<!-- \\Native5\\Util\\Password\\PolicyGenerator -->
<g id="node24" class="node"><title>\\Native5\\Util\\Password\\PolicyGenerator</title>
<g id="a_node24"><a xlink:href="Util.Password.PolicyGenerator.html" xlink:title="PolicyGenerator" target="_parent">
<polygon fill="none" stroke="black" points="681.516,-104 566.484,-104 566.484,-68 681.516,-68 681.516,-104"/>
<text text-anchor="middle" x="624" y="-81.6" font-family="Courier,monospace" font-size="11.00">PolicyGenerator</text>
</a>
</g>
</g>
</g>
</svg>
